<mxfile host="app.diagrams.net" modified="2024-06-19T21:12:08.249Z" agent="Mozilla/5.0 (Macintosh; Intel Mac OS X 10_15_7) AppleWebKit/605.1.15 (KHTML, like Gecko) Version/17.5 Safari/605.1.15" version="24.5.5" etag="f9isN2HFqX33Cgs0bLu3" type="github">
  <diagram name="Page-1" id="OZU3ZvA2aPoWL_jV6k-2">
    <mxGraphModel>
      <root>
        <mxCell id="0" />
        <mxCell id="1" parent="0" />
      </root>
    </mxGraphModel>
  </diagram>
</mxfile>
